<?xml version="1.0" standalone="no"?>
<!DOCTYPE svg PUBLIC "-//W3C//DTD SVG 20010904//EN"
 "http://www.w3.org/TR/2001/REC-SVG-20010904/DTD/svg10.dtd">
<svg version="1.0" xmlns="http://www.w3.org/2000/svg"
 width="485" height="162" viewBox="0 0 50 50"
 preserveAspectRatio="xMidYMid meet">

<g transform="translate(0.000000,512.000000) scale(0.100000,-0.100000)"
fill="#000000" stroke="none">
<path d="M905 5114 c-133 -22 -225 -64 -303 -137 -60 -58 -91 -106 -124 -193
-22 -58 -23 -65 -23 -589 l0 -530 24 -60 c13 -33 26 -86 28 -117 l6 -57 28 14
c15 8 36 12 46 9 11 -4 14 -2 7 3 -14 11 9 170 42 288 91 322 330 612 631 768
149 77 351 136 471 137 23 0 42 5 42 11 0 24 -130 199 -200 270 -87 87 -182
140 -295 164 -71 15 -325 27 -380 19z"/>
<path d="M3920 5109 c-227 -28 -370 -125 -526 -359 -38 -58 -240 -403 -448
-767 -208 -365 -382 -663 -385 -663 -4 0 -90 145 -191 323 -101 177 -202 355
-225 395 l-41 72 -30 -62 c-166 -353 -529 -626 -923 -692 -109 -19 -281 -21
-382 -5 l-70 11 -74 -42 c-40 -24 -98 -62 -129 -86 l-56 -44 0 -75 0 -75 28 0
c49 0 160 -36 218 -71 31 -19 78 -58 105 -88 117 -127 104 -178 -59 -232 -69
-23 -175 -30 -244 -16 l-37 8 -3 -454 -3 -453 -158 -173 c-87 -96 -156 -179
-154 -185 6 -16 118 -11 180 9 28 10 71 28 95 42 l42 24 0 -591 0 -591 25 -48
c30 -60 90 -113 174 -153 223 -106 593 -83 768 48 29 22 42 24 135 24 57 0
127 3 156 6 l52 7 0 77 c0 44 7 96 16 124 l17 48 43 -6 c38 -5 44 -3 44 13 0
27 39 119 74 174 22 33 54 63 107 97 42 28 82 50 87 50 6 0 16 8 21 18 6 9 11
13 11 9 0 -5 14 1 30 13 28 20 36 21 97 11 36 -6 71 -7 76 -4 6 3 7 1 3 -5 -4
-7 -2 -12 3 -12 8 0 11 -68 11 -206 l0 -206 68 37 c151 83 337 234 458 373
186 212 316 458 390 738 40 148 20 226 -70 279 -38 22 -181 65 -268 80 -21 3
-38 8 -38 10 0 2 143 248 318 546 l317 543 5 -1340 5 -1339 23 -47 c66 -134
238 -214 482 -225 269 -11 489 77 562 225 23 46 23 52 26 472 l3 425 38 40
c22 22 46 54 54 71 l16 31 -56 39 -55 39 1 193 c2 190 1 195 -23 237 -35 59
-117 130 -173 149 -104 35 -245 12 -325 -54 -102 -85 -118 -248 -33 -347 66
-78 152 -91 251 -38 52 28 78 26 107 -7 64 -75 -62 -172 -223 -171 -179 1
-327 152 -338 344 -14 250 178 439 446 439 104 0 165 -16 246 -65 32 -19 60
-35 63 -35 2 0 2 606 1 1348 -3 1250 -5 1351 -21 1407 -55 189 -168 300 -354
351 -70 19 -279 26 -383 13z m-2049 -2684 l324 -596 30 6 c17 4 63 12 103 19
l72 13 0 -323 0 -322 -55 -49 c-61 -55 -208 -146 -239 -148 -20 -2 -76 48 -76
67 0 5 -4 6 -10 3 -5 -3 -10 -2 -10 4 0 6 -12 22 -26 36 l-26 26 -40 -68 c-45
-77 -99 -152 -110 -153 -5 0 -8 12 -8 28 0 15 -7 63 -16 107 -9 50 -17 171
-21 327 l-6 248 -36 -22 c-20 -11 -69 -43 -108 -69 l-73 -49 0 619 c0 340 -3
679 -7 754 -4 92 -3 137 4 137 6 0 156 -268 334 -595z m527 -1584 c-1 -16 -6
-27 -10 -25 -4 3 -6 15 -4 27 6 28 5 27 11 27 3 0 4 -13 3 -29z"/>
<path d="M1154 3816 c-33 -22 -81 -59 -107 -82 -59 -52 -263 -195 -274 -192
-4 1 -39 -28 -77 -65 -56 -53 -66 -67 -53 -73 13 -4 33 8 70 43 37 35 74 58
127 78 41 16 76 33 78 37 2 4 30 41 62 82 65 82 99 111 176 149 43 22 73 52
62 62 -2 2 -30 -16 -64 -39z"/>
<path d="M4961 2468 c-30 -97 -161 -600 -161 -620 1 -12 6 -33 13 -46 l13 -23
58 42 c68 49 136 136 167 217 31 78 34 261 5 337 -23 59 -62 125 -75 125 -5 0
-14 -15 -20 -32z"/>
</g>
</svg>
